{
  "accessors": [
    {
      "bufferView": 2,
      "componentType": 5126,
      "count": 10312,
      "max": [
        1.3395520448684692,
        2.7539689540863037,
        8.393844604492188
      ],
      "min": [
        -1.3395520448684692,
        -3.8440709114074707,
        0.009429000318050385
      ],
      "type": "VEC3"
    },
    {
      "bufferView": 2,
      "byteOffset": 123744,
      "componentType": 5126,
      "count": 10312,
      "max": [
        1.0,
        1.0,
        1.0
      ],
      "min": [
        -1.0,
        -1.0,
        -1.0
      ],
      "type": "VEC3"
    },
    {
      "bufferView": 1,
      "componentType": 5126,
      "count": 10312,
      "max": [
        0.999284029006958,
        0.9971820116043091
      ],
      "min": [
        0.0007159999804571271,
        0.0007159999804571271
      ],
      "type": "VEC2"
    },
    {
      "bufferView": 0,
      "componentType": 5125,
      "count": 38250,
      "type": "SCALAR"
    },
    {
      "bufferView": 2,
      "byteOffset": 247488,
      "componentType": 5126,
      "count": 225,
      "max": [
        0.08996699750423431,
        2.3090639114379883,
        8.152633666992188
      ],
      "min": [
        -0.09188800305128098,
        1.8128429651260376,
        7.970778942108154
      ],
      "type": "VEC3"
    },
    {
      "bufferView": 2,
      "byteOffset": 250188,
      "componentType": 5126,
      "count": 225,
      "max": [
        0.9991007447242737,
        1.0,
        0.9991007447242737
      ],
      "min": [
        -0.9991007447242737,
        -0.39339861273765564,
        -0.9991050362586975
      ],
      "type": "VEC3"
    },
    {
      "bufferView": 0,
      "byteOffset": 153000,
      "componentType": 5125,
      "count": 1296,
      "type": "SCALAR"
    },
    {
      "bufferView": 2,
      "byteOffset": 252888,
      "componentType": 5126,
      "count": 228,
      "max": [
        0.06895499676465988,
        1.8329459428787231,
        8.117782592773438
      ],
      "min": [
        -0.06895499676465988,
        -1.976101040840149,
        5.402679920196533
      ],
      "type": "VEC3"
    },
    {
      "bufferView": 2,
      "byteOffset": 255624,
      "componentType": 5126,
      "count": 228,
      "max": [
        1.0,
        0.997115433216095,
        1.0
      ],
      "min": [
        -1.0,
        -0.997115433216095,
        -1.0
      ],
      "type": "VEC3"
    },
    {
      "bufferView": 1,
      "byteOffset": 82496,
      "componentType": 5126,
      "count": 228,
      "max": [
        0.9998679757118225,
        0.9567530155181885
      ],
      "min": [
        0.0001320000010309741,
        0.0001320000010309741
      ],
      "type": "VEC2"
    },
    {
      "bufferView": 0,
      "byteOffset": 158184,
      "componentType": 5125,
      "count": 768,
      "type": "SCALAR"
    },
    {
      "bufferView": 2,
      "byteOffset": 258360,
      "componentType": 5126,
      "count": 223,
      "max": [
        0.6438559889793396,
        2.7288858890533447,
        8.388845443725586
      ],
      "min": [
        -0.645687997341156,
        1.4392540454864502,
        7.870710849761963
      ],
      "type": "VEC3"
    },
    {
      "bufferView": 2,
      "byteOffset": 261036,
      "componentType": 5126,
      "count": 223,
      "max": [
        0.9504777789115906,
        0.9562709331512451,
        -0.28019148111343384
      ],
      "min": [
        -0.9504777789115906,
        -0.9504777789115906,
        -1.0
      ],
      "type": "VEC3"
    },
    {
      "bufferView": 1,
      "byteOffset": 84320,
      "componentType": 5126,
      "count": 223,
      "max": [
        0.9759079813957214,
        0.9999009966850281
      ],
      "min": [
        9.899999713525176e-05,
        9.899999713525176e-05
      ],
      "type": "VEC2"
    },
    {
      "bufferView": 0,
      "byteOffset": 161256,
      "componentType": 5125,
      "count": 1152,
      "type": "SCALAR"
    }
  ],
  "asset": {
    "extras": {
      "author": "Ilya (https://sketchfab.com/Mavericks.magic)",
      "license": "CC-BY-NC-4.0 (http://creativecommons.org/licenses/by-nc/4.0/)",
      "source": "https://sketchfab.com/3d-models/a-floor-lamp-58823caf1d9f4235a0872ae3e886fd20",
      "title": "a Floor Lamp"
    },
    "generator": "Sketchfab-12.67.0",
    "version": "2.0"
  },
  "bufferViews": [
    {
      "buffer": 0,
      "byteLength": 165864,
      "name": "floatBufferViews",
      "target": 34963
    },
    {
      "buffer": 0,
      "byteLength": 86104,
      "byteOffset": 165864,
      "byteStride": 8,
      "name": "floatBufferViews",
      "target": 34962
    },
    {
      "buffer": 0,
      "byteLength": 263712,
      "byteOffset": 251968,
      "byteStride": 12,
      "name": "floatBufferViews",
      "target": 34962
    }
  ],
  "buffers": [
    {
      "byteLength": 515680,
      "uri": "scene.bin"
    }
  ],
  "images": [
    {
      "uri": "textures/Latun_baseColor.png"
    },
    {
      "uri": "textures/mirror.001_baseColor.png"
    }
  ],
  "materials": [
    {
      "doubleSided": true,
      "name": "Latun",
      "pbrMetallicRoughness": {
        "baseColorTexture": {
          "index": 0
        },
        "metallicFactor": 0.763910061,
        "roughnessFactor": 0.2761051829
      }
    },
    {
      "doubleSided": true,
      "emissiveFactor": [
        1.0,
        1.0,
        1.0
      ],
      "name": "Material",
      "pbrMetallicRoughness": {
        "metallicFactor": 0.0,
        "roughnessFactor": 0.0
      }
    },
    {
      "doubleSided": true,
      "name": "black_rezina.002",
      "pbrMetallicRoughness": {
        "baseColorFactor": [
          0.0027398011,
          0.002697746,
          0.00265494,
          1.0
        ],
        "metallicFactor": 0.0,
        "roughnessFactor": 0.270007622
      }
    },
    {
      "doubleSided": true,
      "name": "mirror.001",
      "pbrMetallicRoughness": {
        "baseColorTexture": {
          "index": 1
        },
        "metallicFactor": 0.0,
        "roughnessFactor": 0.251714939
      }
    }
  ],
  "meshes": [
    {
      "name": "Object_0",
      "primitives": [
        {
          "attributes": {
            "NORMAL": 1,
            "POSITION": 0,
            "TEXCOORD_0": 2
          },
          "indices": 3,
          "material": 0,
          "mode": 4
        }
      ]
    },
    {
      "name": "Object_1",
      "primitives": [
        {
          "attributes": {
            "NORMAL": 5,
            "POSITION": 4
          },
          "indices": 6,
          "material": 1,
          "mode": 4
        }
      ]
    },
    {
      "name": "Object_2",
      "primitives": [
        {
          "attributes": {
            "NORMAL": 8,
            "POSITION": 7,
            "TEXCOORD_0": 9
          },
          "indices": 10,
          "material": 2,
          "mode": 4
        }
      ]
    },
    {
      "name": "Object_3",
      "primitives": [
        {
          "attributes": {
            "NORMAL": 12,
            "POSITION": 11,
            "TEXCOORD_0": 13
          },
          "indices": 14,
          "material": 3,
          "mode": 4
        }
      ]
    }
  ],
  "nodes": [
    {
      "children": [
        1
      ],
      "matrix": [
        1.0,
        0.0,
        0.0,
        0.0,
        0.0,
        2.220446049250313e-16,
        -1.0,
        0.0,
        0.0,
        1.0,
        2.220446049250313e-16,
        0.0,
        0.0,
        0.0,
        0.0,
        1.0
      ],
      "name": "Sketchfab_model"
    },
    {
      "children": [
        2,
        3,
        4,
        5
      ],
      "name": "Tall lamp.obj.cleaner.materialmerger.gles"
    },
    {
      "mesh": 0,
      "name": "Object_2"
    },
    {
      "mesh": 1,
      "name": "Object_3"
    },
    {
      "mesh": 2,
      "name": "Object_4"
    },
    {
      "mesh": 3,
      "name": "Object_5"
    }
  ],
  "samplers": [
    {
      "magFilter": 9729,
      "minFilter": 9987,
      "wrapS": 10497,
      "wrapT": 10497
    }
  ],
  "scene": 0,
  "scenes": [
    {
      "name": "Sketchfab_Scene",
      "nodes": [
        0
      ]
    }
  ],
  "textures": [
    {
      "sampler": 0,
      "source": 0
    },
    {
      "sampler": 0,
      "source": 1
    }
  ]
}
