{
  "accessors": [
    {
      "bufferView": 2,
      "componentType": 5126,
      "count": 3401,
      "max": [
        7.453461170196533,
        21.937623977661133,
        41.66496276855469
      ],
      "min": [
        -7.469610691070557,
        12.196054458618164,
        26.954959869384766
      ],
      "type": "VEC3"
    },
    {
      "bufferView": 2,
      "byteOffset": 40812,
      "componentType": 5126,
      "count": 3401,
      "max": [
        0.9995940327644348,
        0.9999838471412659,
        0.9997557401657104
      ],
      "min": [
        -0.9995940327644348,
        -0.9999838471412659,
        -0.9997557997703552
      ],
      "type": "VEC3"
    },
    {
      "bufferView": 1,
      "componentType": 5126,
      "count": 3401,
      "max": [
        1.0000001192092896,
        0.9958335161209106
      ],
      "min": [
        0.0,
        0.004166665952652693
      ],
      "type": "VEC2"
    },
    {
      "bufferView": 0,
      "componentType": 5125,
      "count": 18948,
      "type": "SCALAR"
    },
    {
      "bufferView": 2,
      "byteOffset": 81624,
      "componentType": 5126,
      "count": 8513,
      "max": [
        26.93793487548828,
        35.37804412841797,
        41.00088882446289
      ],
      "min": [
        -26.937936782836914,
        -52.068729400634766,
        -124.24112701416016
      ],
      "type": "VEC3"
    },
    {
      "bufferView": 2,
      "byteOffset": 183780,
      "componentType": 5126,
      "count": 8513,
      "max": [
        0.9998898506164551,
        0.9997540712356567,
        0.9999395608901978
      ],
      "min": [
        -0.9998898506164551,
        -1.0,
        -0.9998563528060913
      ],
      "type": "VEC3"
    },
    {
      "bufferView": 1,
      "byteOffset": 27208,
      "componentType": 5126,
      "count": 8513,
      "max": [
        0.9990234375,
        0.994758129119873
      ],
      "min": [
        0.0009765625,
        0.015171385370194912
      ],
      "type": "VEC2"
    },
    {
      "bufferView": 1,
      "byteOffset": 95312,
      "componentType": 5126,
      "count": 8513,
      "max": [
        0.9990234375,
        0.994758129119873
      ],
      "min": [
        0.0009765625,
        0.015171385370194912
      ],
      "type": "VEC2"
    },
    {
      "bufferView": 0,
      "byteOffset": 75792,
      "componentType": 5125,
      "count": 46284,
      "type": "SCALAR"
    }
  ],
  "asset": {
    "extras": {
      "author": "markcraig (https://sketchfab.com/markcraig)",
      "license": "CC-BY-NC-4.0 (http://creativecommons.org/licenses/by-nc/4.0/)",
      "source": "https://sketchfab.com/3d-models/quokka-c0212e29e3c748a5b499dc2d72f2cd84",
      "title": "Quokka"
    },
    "generator": "Sketchfab-12.65.0",
    "version": "2.0"
  },
  "bufferViews": [
    {
      "buffer": 0,
      "byteLength": 260928,
      "name": "floatBufferViews",
      "target": 34963
    },
    {
      "buffer": 0,
      "byteLength": 163416,
      "byteOffset": 260928,
      "byteStride": 8,
      "name": "floatBufferViews",
      "target": 34962
    },
    {
      "buffer": 0,
      "byteLength": 285936,
      "byteOffset": 424344,
      "byteStride": 12,
      "name": "floatBufferViews",
      "target": 34962
    }
  ],
  "buffers": [
    {
      "byteLength": 710280,
      "uri": "scene.bin"
    }
  ],
  "extensionsRequired": [
    "KHR_materials_pbrSpecularGlossiness"
  ],
  "extensionsUsed": [
    "KHR_materials_pbrSpecularGlossiness"
  ],
  "images": [
    {
      "uri": "textures/blinn2_diffuse.png"
    },
    {
      "uri": "textures/blinn2_specularGlossiness.png"
    }
  ],
  "materials": [
    {
      "doubleSided": true,
      "extensions": {
        "KHR_materials_pbrSpecularGlossiness": {
          "diffuseFactor": [
            0.0,
            0.0,
            0.0,
            1.0
          ],
          "glossinessFactor": 0.73,
          "specularFactor": [
            0.03,
            0.03,
            0.03
          ]
        }
      },
      "name": "blinn3"
    },
    {
      "doubleSided": true,
      "extensions": {
        "KHR_materials_pbrSpecularGlossiness": {
          "diffuseFactor": [
            1.0,
            1.0,
            1.0,
            1.0
          ],
          "diffuseTexture": {
            "index": 0
          },
          "glossinessFactor": 0.59,
          "specularFactor": [
            0.04,
            0.04,
            0.04
          ],
          "specularGlossinessTexture": {
            "index": 1
          }
        }
      },
      "name": "blinn2"
    }
  ],
  "meshes": [
    {
      "name": "pSphere3_blinn3_0",
      "primitives": [
        {
          "attributes": {
            "NORMAL": 1,
            "POSITION": 0,
            "TEXCOORD_0": 2
          },
          "indices": 3,
          "material": 0,
          "mode": 4
        }
      ]
    },
    {
      "name": "pSphere3_blinn2_0",
      "primitives": [
        {
          "attributes": {
            "NORMAL": 5,
            "POSITION": 4,
            "TEXCOORD_0": 6,
            "TEXCOORD_1": 7
          },
          "indices": 8,
          "material": 1,
          "mode": 4
        }
      ]
    }
  ],
  "nodes": [
    {
      "children": [
        1
      ],
      "matrix": [
        1.0,
        0.0,
        0.0,
        0.0,
        0.0,
        2.220446049250313e-16,
        -1.0,
        0.0,
        0.0,
        1.0,
        2.220446049250313e-16,
        0.0,
        0.0,
        0.0,
        0.0,
        1.0
      ],
      "name": "Sketchfab_model"
    },
    {
      "children": [
        2
      ],
      "matrix": [
        1.0,
        0.0,
        0.0,
        0.0,
        0.0,
        0.0,
        1.0,
        0.0,
        0.0,
        -1.0,
        0.0,
        0.0,
        0.0,
        0.0,
        0.0,
        1.0
      ],
      "name": "quokka.fbx"
    },
    {
      "children": [
        3
      ],
      "name": "RootNode"
    },
    {
      "children": [
        4,
        5
      ],
      "matrix": [
        0.009999999776482582,
        0.0,
        0.0,
        0.0,
        0.0,
        0.009999999776482582,
        0.0,
        0.0,
        0.0,
        0.0,
        0.009999999776482582,
        0.0,
        0.0,
        0.0,
        -0.3088335394859314,
        1.0
      ],
      "name": "pSphere3"
    },
    {
      "mesh": 0,
      "name": "pSphere3_blinn3_0"
    },
    {
      "mesh": 1,
      "name": "pSphere3_blinn2_0"
    }
  ],
  "samplers": [
    {
      "magFilter": 9729,
      "minFilter": 9987,
      "wrapS": 10497,
      "wrapT": 10497
    }
  ],
  "scene": 0,
  "scenes": [
    {
      "name": "Sketchfab_Scene",
      "nodes": [
        0
      ]
    }
  ],
  "textures": [
    {
      "sampler": 0,
      "source": 0
    },
    {
      "sampler": 0,
      "source": 1
    }
  ]
}
