{
  "accessors": [
    {
      "bufferView": 2,
      "componentType": 5126,
      "count": 1564,
      "max": [
        25.789674758911133,
        47.44672393798828,
        27.53773307800293
      ],
      "min": [
        -25.789674758911133,
        -0.13672618567943573,
        -27.53773307800293
      ],
      "type": "VEC3"
    },
    {
      "bufferView": 2,
      "byteOffset": 18768,
      "componentType": 5126,
      "count": 1564,
      "max": [
        1.0,
        0.999968409538269,
        0.9998277425765991
      ],
      "min": [
        -1.0,
        -1.0,
        -0.9996792078018188
      ],
      "type": "VEC3"
    },
    {
      "bufferView": 1,
      "componentType": 5126,
      "count": 1564,
      "max": [
        0.9444233775138855,
        0.9900000095367432
      ],
      "min": [
        0.009999999776482582,
        0.009999999776482582
      ],
      "type": "VEC2"
    },
    {
      "bufferView": 1,
      "byteOffset": 12512,
      "componentType": 5126,
      "count": 1564,
      "max": [
        0.9444233775138855,
        0.9900000095367432
      ],
      "min": [
        0.009999999776482582,
        0.009999999776482582
      ],
      "type": "VEC2"
    },
    {
      "bufferView": 0,
      "componentType": 5125,
      "count": 5148,
      "type": "SCALAR"
    },
    {
      "bufferView": 2,
      "byteOffset": 37536,
      "componentType": 5126,
      "count": 29784,
      "max": [
        23.61355209350586,
        47.20515060424805,
        28.086835861206055
      ],
      "min": [
        -23.6043643951416,
        16.472036361694336,
        -25.54778480529785
      ],
      "type": "VEC3"
    },
    {
      "bufferView": 2,
      "byteOffset": 394944,
      "componentType": 5126,
      "count": 29784,
      "max": [
        1.0,
        0.9999996423721313,
        0.9999743700027466
      ],
      "min": [
        -1.0,
        -0.9999967217445374,
        -0.9999985098838806
      ],
      "type": "VEC3"
    },
    {
      "bufferView": 3,
      "componentType": 5126,
      "count": 29784,
      "max": [
        1.0,
        0.9999767541885376,
        0.999571681022644,
        1.0
      ],
      "min": [
        -1.0,
        -0.9999924898147583,
        -0.9973534345626831,
        -1.0
      ],
      "type": "VEC4"
    },
    {
      "bufferView": 1,
      "byteOffset": 25024,
      "componentType": 5126,
      "count": 29784,
      "max": [
        0.9444002509117126,
        0.9925000071525574
      ],
      "min": [
        0.007499999832361937,
        0.007499999832361937
      ],
      "type": "VEC2"
    },
    {
      "bufferView": 0,
      "byteOffset": 20592,
      "componentType": 5125,
      "count": 170040,
      "type": "SCALAR"
    },
    {
      "bufferView": 4,
      "componentType": 5126,
      "count": 2,
      "max": [
        5.0
      ],
      "min": [
        0.0
      ],
      "type": "SCALAR"
    },
    {
      "bufferView": 5,
      "componentType": 5126,
      "count": 2,
      "max": [
        0.0,
        75.0,
        400.0
      ],
      "min": [
        0.0,
        75.0,
        400.0
      ],
      "type": "VEC3"
    },
    {
      "bufferView": 4,
      "byteOffset": 8,
      "componentType": 5126,
      "count": 2,
      "max": [
        5.0
      ],
      "min": [
        0.0
      ],
      "type": "SCALAR"
    },
    {
      "bufferView": 5,
      "byteOffset": 24,
      "componentType": 5126,
      "count": 2,
      "max": [
        1.0,
        1.0,
        1.0
      ],
      "min": [
        1.0,
        1.0,
        1.0
      ],
      "type": "VEC3"
    },
    {
      "bufferView": 4,
      "byteOffset": 16,
      "componentType": 5126,
      "count": 2,
      "max": [
        5.0
      ],
      "min": [
        0.0
      ],
      "type": "SCALAR"
    },
    {
      "bufferView": 6,
      "componentType": 5126,
      "count": 2,
      "max": [
        -0.030843565240502357,
        0.7064337730407715,
        -0.030843565240502357,
        0.7064337730407715
      ],
      "min": [
        -0.030843565240502357,
        0.7064337730407715,
        -0.030843565240502357,
        0.7064337730407715
      ],
      "type": "VEC4"
    },
    {
      "bufferView": 4,
      "byteOffset": 24,
      "componentType": 5126,
      "count": 2,
      "max": [
        5.0
      ],
      "min": [
        0.0
      ],
      "type": "SCALAR"
    },
    {
      "bufferView": 5,
      "byteOffset": 48,
      "componentType": 5126,
      "count": 2,
      "max": [
        0.0,
        0.0,
        0.0
      ],
      "min": [
        0.0,
        0.0,
        0.0
      ],
      "type": "VEC3"
    },
    {
      "bufferView": 4,
      "byteOffset": 32,
      "componentType": 5126,
      "count": 2,
      "max": [
        5.0
      ],
      "min": [
        0.0
      ],
      "type": "SCALAR"
    },
    {
      "bufferView": 5,
      "byteOffset": 72,
      "componentType": 5126,
      "count": 2,
      "max": [
        1.0,
        1.0,
        1.0
      ],
      "min": [
        1.0,
        1.0,
        1.0
      ],
      "type": "VEC3"
    },
    {
      "bufferView": 4,
      "byteOffset": 40,
      "componentType": 5126,
      "count": 2,
      "max": [
        5.0
      ],
      "min": [
        0.0
      ],
      "type": "SCALAR"
    },
    {
      "bufferView": 6,
      "byteOffset": 32,
      "componentType": 5126,
      "count": 2,
      "max": [
        0.0,
        0.0,
        0.0,
        1.0
      ],
      "min": [
        0.0,
        0.0,
        0.0,
        1.0
      ],
      "type": "VEC4"
    },
    {
      "bufferView": 4,
      "byteOffset": 48,
      "componentType": 5126,
      "count": 2,
      "max": [
        5.0
      ],
      "min": [
        0.0
      ],
      "type": "SCALAR"
    },
    {
      "bufferView": 5,
      "byteOffset": 96,
      "componentType": 5126,
      "count": 2,
      "max": [
        0.0,
        1.5,
        -0.6000000238418579
      ],
      "min": [
        0.0,
        1.5,
        -0.6000000238418579
      ],
      "type": "VEC3"
    },
    {
      "bufferView": 4,
      "byteOffset": 56,
      "componentType": 5126,
      "count": 2,
      "max": [
        5.0
      ],
      "min": [
        0.0
      ],
      "type": "SCALAR"
    },
    {
      "bufferView": 5,
      "byteOffset": 120,
      "componentType": 5126,
      "count": 2,
      "max": [
        1.0,
        1.0,
        1.0
      ],
      "min": [
        1.0,
        1.0,
        1.0
      ],
      "type": "VEC3"
    },
    {
      "bufferView": 4,
      "byteOffset": 64,
      "componentType": 5126,
      "count": 2,
      "max": [
        5.0
      ],
      "min": [
        0.0
      ],
      "type": "SCALAR"
    },
    {
      "bufferView": 6,
      "byteOffset": 64,
      "componentType": 5126,
      "count": 2,
      "max": [
        0.0,
        0.0,
        0.0,
        1.0
      ],
      "min": [
        0.0,
        0.0,
        0.0,
        1.0
      ],
      "type": "VEC4"
    },
    {
      "bufferView": 4,
      "byteOffset": 72,
      "componentType": 5126,
      "count": 2,
      "max": [
        5.0
      ],
      "min": [
        0.0
      ],
      "type": "SCALAR"
    },
    {
      "bufferView": 5,
      "byteOffset": 144,
      "componentType": 5126,
      "count": 2,
      "max": [
        0.0,
        0.14000000059604645,
        0.0
      ],
      "min": [
        0.0,
        0.14000000059604645,
        0.0
      ],
      "type": "VEC3"
    },
    {
      "bufferView": 4,
      "byteOffset": 80,
      "componentType": 5126,
      "count": 2,
      "max": [
        5.0
      ],
      "min": [
        0.0
      ],
      "type": "SCALAR"
    },
    {
      "bufferView": 5,
      "byteOffset": 168,
      "componentType": 5126,
      "count": 2,
      "max": [
        1.0,
        1.0,
        1.0
      ],
      "min": [
        1.0,
        1.0,
        1.0
      ],
      "type": "VEC3"
    },
    {
      "bufferView": 4,
      "byteOffset": 88,
      "componentType": 5126,
      "count": 2,
      "max": [
        5.0
      ],
      "min": [
        0.0
      ],
      "type": "SCALAR"
    },
    {
      "bufferView": 6,
      "byteOffset": 96,
      "componentType": 5126,
      "count": 2,
      "max": [
        0.0,
        0.0,
        0.0,
        1.0
      ],
      "min": [
        0.0,
        0.0,
        0.0,
        1.0
      ],
      "type": "VEC4"
    },
    {
      "bufferView": 4,
      "byteOffset": 96,
      "componentType": 5126,
      "count": 2,
      "max": [
        5.0
      ],
      "min": [
        0.0
      ],
      "type": "SCALAR"
    },
    {
      "bufferView": 5,
      "byteOffset": 192,
      "componentType": 5126,
      "count": 2,
      "max": [
        0.0,
        0.0,
        0.0
      ],
      "min": [
        0.0,
        0.0,
        0.0
      ],
      "type": "VEC3"
    },
    {
      "bufferView": 4,
      "byteOffset": 104,
      "componentType": 5126,
      "count": 2,
      "max": [
        5.0
      ],
      "min": [
        0.0
      ],
      "type": "SCALAR"
    },
    {
      "bufferView": 5,
      "byteOffset": 216,
      "componentType": 5126,
      "count": 2,
      "max": [
        1.0,
        1.0,
        1.0
      ],
      "min": [
        1.0,
        1.0,
        1.0
      ],
      "type": "VEC3"
    },
    {
      "bufferView": 4,
      "byteOffset": 112,
      "componentType": 5126,
      "count": 2,
      "max": [
        5.0
      ],
      "min": [
        0.0
      ],
      "type": "SCALAR"
    },
    {
      "bufferView": 6,
      "byteOffset": 128,
      "componentType": 5126,
      "count": 2,
      "max": [
        0.0,
        0.0,
        0.0,
        1.0
      ],
      "min": [
        0.0,
        0.0,
        0.0,
        1.0
      ],
      "type": "VEC4"
    },
    {
      "bufferView": 4,
      "byteOffset": 120,
      "componentType": 5126,
      "count": 2,
      "max": [
        5.0
      ],
      "min": [
        0.0
      ],
      "type": "SCALAR"
    },
    {
      "bufferView": 5,
      "byteOffset": 240,
      "componentType": 5126,
      "count": 2,
      "max": [
        -200.0,
        200.0,
        200.0
      ],
      "min": [
        -200.0,
        200.0,
        200.0
      ],
      "type": "VEC3"
    },
    {
      "bufferView": 4,
      "byteOffset": 128,
      "componentType": 5126,
      "count": 2,
      "max": [
        5.0
      ],
      "min": [
        0.0
      ],
      "type": "SCALAR"
    },
    {
      "bufferView": 5,
      "byteOffset": 264,
      "componentType": 5126,
      "count": 2,
      "max": [
        1.0,
        1.0,
        1.0
      ],
      "min": [
        1.0,
        1.0,
        1.0
      ],
      "type": "VEC3"
    },
    {
      "bufferView": 4,
      "byteOffset": 136,
      "componentType": 5126,
      "count": 2,
      "max": [
        5.0
      ],
      "min": [
        0.0
      ],
      "type": "SCALAR"
    },
    {
      "bufferView": 6,
      "byteOffset": 160,
      "componentType": 5126,
      "count": 2,
      "max": [
        0.4619397521018982,
        -0.3314135670661926,
        0.19134171307086945,
        0.8001031279563904
      ],
      "min": [
        0.4619397521018982,
        -0.3314135670661926,
        0.19134171307086945,
        0.8001031279563904
      ],
      "type": "VEC4"
    }
  ],
  "animations": [
    {
      "channels": [
        {
          "sampler": 0,
          "target": {
            "node": 4,
            "path": "translation"
          }
        },
        {
          "sampler": 1,
          "target": {
            "node": 4,
            "path": "scale"
          }
        },
        {
          "sampler": 2,
          "target": {
            "node": 4,
            "path": "rotation"
          }
        },
        {
          "sampler": 3,
          "target": {
            "node": 7,
            "path": "translation"
          }
        },
        {
          "sampler": 4,
          "target": {
            "node": 7,
            "path": "scale"
          }
        },
        {
          "sampler": 5,
          "target": {
            "node": 7,
            "path": "rotation"
          }
        },
        {
          "sampler": 6,
          "target": {
            "node": 9,
            "path": "translation"
          }
        },
        {
          "sampler": 7,
          "target": {
            "node": 9,
            "path": "scale"
          }
        },
        {
          "sampler": 8,
          "target": {
            "node": 9,
            "path": "rotation"
          }
        },
        {
          "sampler": 9,
          "target": {
            "node": 6,
            "path": "translation"
          }
        },
        {
          "sampler": 10,
          "target": {
            "node": 6,
            "path": "scale"
          }
        },
        {
          "sampler": 11,
          "target": {
            "node": 6,
            "path": "rotation"
          }
        },
        {
          "sampler": 12,
          "target": {
            "node": 11,
            "path": "translation"
          }
        },
        {
          "sampler": 13,
          "target": {
            "node": 11,
            "path": "scale"
          }
        },
        {
          "sampler": 14,
          "target": {
            "node": 11,
            "path": "rotation"
          }
        },
        {
          "sampler": 15,
          "target": {
            "node": 12,
            "path": "translation"
          }
        },
        {
          "sampler": 16,
          "target": {
            "node": 12,
            "path": "scale"
          }
        },
        {
          "sampler": 17,
          "target": {
            "node": 12,
            "path": "rotation"
          }
        }
      ],
      "name": "Take 001",
      "samplers": [
        {
          "input": 10,
          "interpolation": "LINEAR",
          "output": 11
        },
        {
          "input": 12,
          "interpolation": "LINEAR",
          "output": 13
        },
        {
          "input": 14,
          "interpolation": "LINEAR",
          "output": 15
        },
        {
          "input": 16,
          "interpolation": "LINEAR",
          "output": 17
        },
        {
          "input": 18,
          "interpolation": "LINEAR",
          "output": 19
        },
        {
          "input": 20,
          "interpolation": "LINEAR",
          "output": 21
        },
        {
          "input": 22,
          "interpolation": "LINEAR",
          "output": 23
        },
        {
          "input": 24,
          "interpolation": "LINEAR",
          "output": 25
        },
        {
          "input": 26,
          "interpolation": "LINEAR",
          "output": 27
        },
        {
          "input": 28,
          "interpolation": "LINEAR",
          "output": 29
        },
        {
          "input": 30,
          "interpolation": "LINEAR",
          "output": 31
        },
        {
          "input": 32,
          "interpolation": "LINEAR",
          "output": 33
        },
        {
          "input": 34,
          "interpolation": "LINEAR",
          "output": 35
        },
        {
          "input": 36,
          "interpolation": "LINEAR",
          "output": 37
        },
        {
          "input": 38,
          "interpolation": "LINEAR",
          "output": 39
        },
        {
          "input": 40,
          "interpolation": "LINEAR",
          "output": 41
        },
        {
          "input": 42,
          "interpolation": "LINEAR",
          "output": 43
        },
        {
          "input": 44,
          "interpolation": "LINEAR",
          "output": 45
        }
      ]
    }
  ],
  "asset": {
    "extras": {
      "author": "brucassol (https://sketchfab.com/brucassol)",
      "license": "CC-BY-4.0 (http://creativecommons.org/licenses/by/4.0/)",
      "source": "https://sketchfab.com/3d-models/chair-327203d10f524ed2aac78e59546821b3",
      "title": "Chair"
    },
    "generator": "Sketchfab-12.68.0",
    "version": "2.0"
  },
  "bufferViews": [
    {
      "buffer": 0,
      "byteLength": 700752,
      "name": "floatBufferViews",
      "target": 34963
    },
    {
      "buffer": 0,
      "byteLength": 263296,
      "byteOffset": 700752,
      "byteStride": 8,
      "name": "floatBufferViews",
      "target": 34962
    },
    {
      "buffer": 0,
      "byteLength": 752352,
      "byteOffset": 964048,
      "byteStride": 12,
      "name": "floatBufferViews",
      "target": 34962
    },
    {
      "buffer": 0,
      "byteLength": 476544,
      "byteOffset": 1716400,
      "byteStride": 16,
      "name": "floatBufferViews",
      "target": 34962
    },
    {
      "buffer": 0,
      "byteLength": 144,
      "byteOffset": 2192944,
      "name": "floatBufferViews"
    },
    {
      "buffer": 0,
      "byteLength": 288,
      "byteOffset": 2193088,
      "byteStride": 12,
      "name": "floatBufferViews"
    },
    {
      "buffer": 0,
      "byteLength": 192,
      "byteOffset": 2193376,
      "byteStride": 16,
      "name": "floatBufferViews"
    }
  ],
  "buffers": [
    {
      "byteLength": 2193568,
      "uri": "scene.bin"
    }
  ],
  "images": [
    {
      "uri": "textures/Madeira_baseColor.jpeg"
    },
    {
      "uri": "textures/Madeira_metallicRoughness.png"
    },
    {
      "uri": "textures/Couro_normal.jpeg"
    }
  ],
  "materials": [
    {
      "doubleSided": true,
      "name": "Madeira",
      "pbrMetallicRoughness": {
        "baseColorTexture": {
          "index": 0
        },
        "metallicFactor": 0.2,
        "metallicRoughnessTexture": {
          "index": 1
        }
      }
    },
    {
      "doubleSided": true,
      "name": "Couro",
      "normalTexture": {
        "index": 2
      },
      "pbrMetallicRoughness": {
        "baseColorFactor": [
          0.006072930432828698,
          0.006072930432828698,
          0.006072930432828698,
          1.0
        ],
        "metallicFactor": 0.53,
        "roughnessFactor": 0.6
      }
    }
  ],
  "meshes": [
    {
      "name": "Madeira (2)_Madeira_0",
      "primitives": [
        {
          "attributes": {
            "NORMAL": 1,
            "POSITION": 0,
            "TEXCOORD_0": 2,
            "TEXCOORD_1": 3
          },
          "indices": 4,
          "material": 0,
          "mode": 4
        }
      ]
    },
    {
      "name": "Almofada_Couro_0",
      "primitives": [
        {
          "attributes": {
            "NORMAL": 6,
            "POSITION": 5,
            "TANGENT": 7,
            "TEXCOORD_0": 8
          },
          "indices": 9,
          "material": 1,
          "mode": 4
        }
      ]
    }
  ],
  "nodes": [
    {
      "children": [
        1
      ],
      "matrix": [
        0.012130831877836812,
        3.728178774676058e-18,
        -0.016790224540401688,
        0.0,
        -0.016790224540401688,
        2.6935857717262505e-18,
        -0.012130831877836812,
        0.0,
        0.0,
        0.02071397379040718,
        4.599426126718416e-18,
        0.0,
        3.7246729334583506e-05,
        -8.978731317565573e-21,
        4.043661101604812e-05,
        1.0
      ],
      "name": "Sketchfab_model"
    },
    {
      "children": [
        2
      ],
      "matrix": [
        1.0,
        0.0,
        0.0,
        0.0,
        0.0,
        0.0,
        1.0,
        0.0,
        0.0,
        -1.0,
        0.0,
        0.0,
        0.0,
        0.0,
        0.0,
        1.0
      ],
      "name": "7cb4ba39acb74acf8dd12c14f6121175.fbx"
    },
    {
      "children": [
        3
      ],
      "name": "Object_2"
    },
    {
      "children": [
        4,
        6,
        11,
        12
      ],
      "name": "RootNode"
    },
    {
      "children": [
        5
      ],
      "name": "Camera",
      "rotation": [
        -0.030843565240502357,
        0.7064337730407715,
        -0.030843565240502357,
        0.7064337730407715
      ],
      "translation": [
        0.0,
        75.0,
        400.0
      ]
    },
    {
      "name": "Object_5"
    },
    {
      "children": [
        7,
        9
      ],
      "name": "Poltrona",
      "translation": [
        0.0,
        0.14000000059604645,
        0.0
      ]
    },
    {
      "children": [
        8
      ],
      "name": "Madeira (2)"
    },
    {
      "mesh": 0,
      "name": "Madeira (2)_Madeira_0"
    },
    {
      "children": [
        10
      ],
      "name": "Almofada",
      "translation": [
        0.0,
        1.5,
        -0.6000000238418579
      ]
    },
    {
      "mesh": 1,
      "name": "Almofada_Couro_0"
    },
    {
      "name": "Texture Group"
    },
    {
      "children": [
        13
      ],
      "name": "Directional Light",
      "rotation": [
        0.4619397521018982,
        -0.3314135670661926,
        0.19134171307086945,
        0.8001031279563904
      ],
      "translation": [
        -200.0,
        200.0,
        200.0
      ]
    },
    {
      "children": [
        14
      ],
      "matrix": [
        1.0,
        0.0,
        0.0,
        0.0,
        0.0,
        2.220446049250313e-16,
        1.0,
        0.0,
        0.0,
        -1.0,
        2.220446049250313e-16,
        0.0,
        0.0,
        0.0,
        0.0,
        1.0
      ],
      "name": "Object_13"
    },
    {
      "name": "Object_14"
    }
  ],
  "samplers": [
    {
      "magFilter": 9729,
      "minFilter": 9987,
      "wrapS": 10497,
      "wrapT": 10497
    }
  ],
  "scene": 0,
  "scenes": [
    {
      "name": "Sketchfab_Scene",
      "nodes": [
        0
      ]
    }
  ],
  "textures": [
    {
      "sampler": 0,
      "source": 0
    },
    {
      "sampler": 0,
      "source": 1
    },
    {
      "sampler": 0,
      "source": 2
    }
  ]
}
