{
  "accessors": [
    {
      "bufferView": 2,
      "componentType": 5126,
      "count": 27612,
      "max": [
        31.73126220703125,
        67.85184478759766,
        28.071176528930664
      ],
      "min": [
        -28.693222045898438,
        0.6514186859130859,
        -12.068693161010742
      ],
      "type": "VEC3"
    },
    {
      "bufferView": 2,
      "byteOffset": 331344,
      "componentType": 5126,
      "count": 27612,
      "max": [
        0.9995517134666443,
        0.9994960427284241,
        0.9999908208847046
      ],
      "min": [
        -0.9997713565826416,
        -0.9998623132705688,
        -0.999808669090271
      ],
      "type": "VEC3"
    },
    {
      "bufferView": 1,
      "componentType": 5126,
      "count": 27612,
      "max": [
        0.9941999912261963,
        0.9908599853515625
      ],
      "min": [
        0.009220000356435776,
        0.005980014801025391
      ],
      "type": "VEC2"
    },
    {
      "bufferView": 0,
      "componentType": 5125,
      "count": 68112,
      "type": "SCALAR"
    }
  ],
  "asset": {
    "extras": {
      "author": "SDPM Esare (https://sketchfab.com/sdpm)",
      "license": "CC-BY-4.0 (http://creativecommons.org/licenses/by/4.0/)",
      "source": "https://sketchfab.com/3d-models/sloth-783d7af55a334608996b127461c5f825",
      "title": "Sloth"
    },
    "generator": "Sketchfab-12.67.0",
    "version": "2.0"
  },
  "bufferViews": [
    {
      "buffer": 0,
      "byteLength": 272448,
      "name": "floatBufferViews",
      "target": 34963
    },
    {
      "buffer": 0,
      "byteLength": 220896,
      "byteOffset": 272448,
      "byteStride": 8,
      "name": "floatBufferViews",
      "target": 34962
    },
    {
      "buffer": 0,
      "byteLength": 662688,
      "byteOffset": 493344,
      "byteStride": 12,
      "name": "floatBufferViews",
      "target": 34962
    }
  ],
  "buffers": [
    {
      "byteLength": 1156032,
      "uri": "scene.bin"
    }
  ],
  "images": [
    {
      "uri": "textures/material_baseColor.png"
    }
  ],
  "materials": [
    {
      "doubleSided": true,
      "name": "material",
      "pbrMetallicRoughness": {
        "baseColorTexture": {
          "index": 0
        }
      }
    }
  ],
  "meshes": [
    {
      "name": "Object_0",
      "primitives": [
        {
          "attributes": {
            "NORMAL": 1,
            "POSITION": 0,
            "TEXCOORD_0": 2
          },
          "indices": 3,
          "material": 0,
          "mode": 4
        }
      ]
    }
  ],
  "nodes": [
    {
      "children": [
        1
      ],
      "matrix": [
        1.0,
        0.0,
        0.0,
        0.0,
        0.0,
        2.220446049250313e-16,
        -1.0,
        0.0,
        0.0,
        1.0,
        2.220446049250313e-16,
        0.0,
        0.0,
        0.0,
        0.0,
        1.0
      ],
      "name": "Sketchfab_model"
    },
    {
      "children": [
        2
      ],
      "name": "root"
    },
    {
      "children": [
        3
      ],
      "matrix": [
        1.0,
        0.0,
        0.0,
        0.0,
        0.0,
        2.220446049250313e-16,
        1.0,
        0.0,
        0.0,
        -1.0,
        2.220446049250313e-16,
        0.0,
        0.0,
        0.0,
        0.0,
        1.0
      ],
      "name": "GLTF_SceneRootNode"
    },
    {
      "children": [
        4
      ],
      "matrix": [
        0.06919218599796295,
        0.0,
        0.0,
        0.0,
        0.0,
        0.06919218599796295,
        0.0,
        0.0,
        0.0,
        0.0,
        0.06919218599796295,
        0.0,
        -0.011573423631489277,
        -0.26096317172050476,
        0.1950385570526123,
        1.0
      ],
      "name": "node_id30_0"
    },
    {
      "mesh": 0,
      "name": "Object_4"
    }
  ],
  "samplers": [
    {
      "magFilter": 9729,
      "minFilter": 9987,
      "wrapS": 10497,
      "wrapT": 10497
    }
  ],
  "scene": 0,
  "scenes": [
    {
      "name": "Sketchfab_Scene",
      "nodes": [
        0
      ]
    }
  ],
  "textures": [
    {
      "sampler": 0,
      "source": 0
    }
  ]
}
