{
  "accessors": [
    {
      "bufferView": 2,
      "componentType": 5126,
      "count": 65532,
      "max": [
        365.26202392578125,
        177.9488067626953,
        538.6071166992188
      ],
      "min": [
        -357.5140686035156,
        -148.9107666015625,
        -454.8835754394531
      ],
      "type": "VEC3"
    },
    {
      "bufferView": 2,
      "byteOffset": 786384,
      "componentType": 5126,
      "count": 65532,
      "max": [
        0.9999635815620422,
        0.9999998211860657,
        0.9999715685844421
      ],
      "min": [
        -0.9999642372131348,
        -0.9999976754188538,
        -0.998831570148468
      ],
      "type": "VEC3"
    },
    {
      "bufferView": 1,
      "componentType": 5126,
      "count": 65532,
      "max": [
        0.9986155033111572,
        0.9981780648231506
      ],
      "min": [
        0.000411913642892614,
        0.00177687406539917
      ],
      "type": "VEC2"
    },
    {
      "bufferView": 0,
      "componentType": 5125,
      "count": 289068,
      "type": "SCALAR"
    },
    {
      "bufferView": 2,
      "byteOffset": 1572768,
      "componentType": 5126,
      "count": 65532,
      "max": [
        366.6430969238281,
        173.95840454101563,
        539.908203125
      ],
      "min": [
        -358.06378173828125,
        -145.0351104736328,
        -450.34197998046875
      ],
      "type": "VEC3"
    },
    {
      "bufferView": 2,
      "byteOffset": 2359152,
      "componentType": 5126,
      "count": 65532,
      "max": [
        0.9999992847442627,
        0.9999989867210388,
        0.9999737739562988
      ],
      "min": [
        -0.9999830722808838,
        -0.9999997019767761,
        -0.9998698830604553
      ],
      "type": "VEC3"
    },
    {
      "bufferView": 1,
      "byteOffset": 524256,
      "componentType": 5126,
      "count": 65532,
      "max": [
        0.9987866878509521,
        0.9997125864028931
      ],
      "min": [
        0.0003069847298320383,
        0.000553429126739502
      ],
      "type": "VEC2"
    },
    {
      "bufferView": 0,
      "byteOffset": 1156272,
      "componentType": 5125,
      "count": 282381,
      "type": "SCALAR"
    },
    {
      "bufferView": 2,
      "byteOffset": 3145536,
      "componentType": 5126,
      "count": 65532,
      "max": [
        367.2879943847656,
        179.8751678466797,
        540.2081298828125
      ],
      "min": [
        -359.1539001464844,
        -148.12429809570313,
        -454.51922607421875
      ],
      "type": "VEC3"
    },
    {
      "bufferView": 2,
      "byteOffset": 3931920,
      "componentType": 5126,
      "count": 65532,
      "max": [
        0.9999992847442627,
        0.9999998211860657,
        0.9999995231628418
      ],
      "min": [
        -0.9999914765357971,
        -1.0,
        -0.999992847442627
      ],
      "type": "VEC3"
    },
    {
      "bufferView": 1,
      "byteOffset": 1048512,
      "componentType": 5126,
      "count": 65532,
      "max": [
        0.9994679093360901,
        0.9996455311775208
      ],
      "min": [
        0.0002935656812041998,
        0.0005672574043273926
      ],
      "type": "VEC2"
    },
    {
      "bufferView": 0,
      "byteOffset": 2285796,
      "componentType": 5125,
      "count": 273225,
      "type": "SCALAR"
    },
    {
      "bufferView": 2,
      "byteOffset": 4718304,
      "componentType": 5126,
      "count": 65532,
      "max": [
        367.5256652832031,
        179.8751678466797,
        540.0310668945313
      ],
      "min": [
        -358.7230224609375,
        -148.9107666015625,
        -455.177490234375
      ],
      "type": "VEC3"
    },
    {
      "bufferView": 2,
      "byteOffset": 5504688,
      "componentType": 5126,
      "count": 65532,
      "max": [
        0.9999933838844299,
        0.9999989867210388,
        0.9999743700027466
      ],
      "min": [
        -0.9999804496765137,
        -0.9999988675117493,
        -0.999992847442627
      ],
      "type": "VEC3"
    },
    {
      "bufferView": 1,
      "byteOffset": 1572768,
      "componentType": 5126,
      "count": 65532,
      "max": [
        0.9977244734764099,
        0.9996970891952515
      ],
      "min": [
        0.00028642886900343,
        0.0005716085433959961
      ],
      "type": "VEC2"
    },
    {
      "bufferView": 0,
      "byteOffset": 3378696,
      "componentType": 5125,
      "count": 221310,
      "type": "SCALAR"
    },
    {
      "bufferView": 2,
      "byteOffset": 6291072,
      "componentType": 5126,
      "count": 59688,
      "max": [
        369.1102294921875,
        179.62826538085938,
        543.9837646484375
      ],
      "min": [
        -360.68408203125,
        -149.2847137451172,
        -456.0162353515625
      ],
      "type": "VEC3"
    },
    {
      "bufferView": 2,
      "byteOffset": 7007328,
      "componentType": 5126,
      "count": 59688,
      "max": [
        0.9999934434890747,
        0.9999989867210388,
        0.9999520778656006
      ],
      "min": [
        -0.9999562501907349,
        -0.9999988675117493,
        -0.999992847442627
      ],
      "type": "VEC3"
    },
    {
      "bufferView": 1,
      "byteOffset": 2097024,
      "componentType": 5126,
      "count": 59688,
      "max": [
        0.9992825388908386,
        0.9997066855430603
      ],
      "min": [
        0.00029009292484261096,
        0.000525355339050293
      ],
      "type": "VEC2"
    },
    {
      "bufferView": 0,
      "byteOffset": 4263936,
      "componentType": 5125,
      "count": 102564,
      "type": "SCALAR"
    }
  ],
  "asset": {
    "extras": {
      "author": "ஜCIHIRISஜ (https://sketchfab.com/crazy4creativity)",
      "license": "CC-BY-4.0 (http://creativecommons.org/licenses/by/4.0/)",
      "source": "https://sketchfab.com/3d-models/metalic-millenium-falcon-star-wars-0c09dbb153a44de0826179d04883a1fd",
      "title": "Metalic Millenium Falcon - Star Wars"
    },
    "generator": "Sketchfab-12.67.0",
    "version": "2.0"
  },
  "bufferViews": [
    {
      "buffer": 0,
      "byteLength": 4674192,
      "name": "floatBufferViews",
      "target": 34963
    },
    {
      "buffer": 0,
      "byteLength": 2574528,
      "byteOffset": 4674192,
      "byteStride": 8,
      "name": "floatBufferViews",
      "target": 34962
    },
    {
      "buffer": 0,
      "byteLength": 7723584,
      "byteOffset": 7248720,
      "byteStride": 12,
      "name": "floatBufferViews",
      "target": 34962
    }
  ],
  "buffers": [
    {
      "byteLength": 14972304,
      "uri": "scene.bin"
    }
  ],
  "images": [
    {
      "uri": "textures/Material0_baseColor.jpeg"
    }
  ],
  "materials": [
    {
      "doubleSided": true,
      "name": "Material0",
      "pbrMetallicRoughness": {
        "baseColorTexture": {
          "index": 0
        },
        "metallicFactor": 0.0
      }
    }
  ],
  "meshes": [
    {
      "name": "Stereo textured mesh_Material0_0",
      "primitives": [
        {
          "attributes": {
            "NORMAL": 1,
            "POSITION": 0,
            "TEXCOORD_0": 2
          },
          "indices": 3,
          "material": 0,
          "mode": 4
        }
      ]
    },
    {
      "name": "Stereo textured mesh_Material0_0",
      "primitives": [
        {
          "attributes": {
            "NORMAL": 5,
            "POSITION": 4,
            "TEXCOORD_0": 6
          },
          "indices": 7,
          "material": 0,
          "mode": 4
        }
      ]
    },
    {
      "name": "Stereo textured mesh_Material0_0",
      "primitives": [
        {
          "attributes": {
            "NORMAL": 9,
            "POSITION": 8,
            "TEXCOORD_0": 10
          },
          "indices": 11,
          "material": 0,
          "mode": 4
        }
      ]
    },
    {
      "name": "Stereo textured mesh_Material0_0",
      "primitives": [
        {
          "attributes": {
            "NORMAL": 13,
            "POSITION": 12,
            "TEXCOORD_0": 14
          },
          "indices": 15,
          "material": 0,
          "mode": 4
        }
      ]
    },
    {
      "name": "Stereo textured mesh_Material0_0",
      "primitives": [
        {
          "attributes": {
            "NORMAL": 17,
            "POSITION": 16,
            "TEXCOORD_0": 18
          },
          "indices": 19,
          "material": 0,
          "mode": 4
        }
      ]
    }
  ],
  "nodes": [
    {
      "children": [
        1
      ],
      "matrix": [
        0.9995037913322449,
        0.01590238884091378,
        -0.027189521118998524,
        0.0,
        0.01573360711336136,
        -0.9998556971549988,
        -0.006410329602658971,
        0.0,
        -0.02728753723204136,
        0.005979359615594371,
        -0.9996097683906555,
        0.0,
        -0.9574463963508606,
        -59.079387664794915,
        -28.654195785522475,
        1.0
      ],
      "name": "Sketchfab_model"
    },
    {
      "children": [
        2
      ],
      "matrix": [
        1.0,
        0.0,
        0.0,
        0.0,
        0.0,
        -1.0,
        0.0,
        0.0,
        0.0,
        0.0,
        -1.0,
        0.0,
        0.0,
        0.0,
        0.0,
        1.0
      ],
      "name": "sketchfabTemp.obj.fbx"
    },
    {
      "children": [
        3
      ],
      "name": "RootNode"
    },
    {
      "children": [
        4,
        5,
        6,
        7,
        8
      ],
      "name": "Stereo textured mesh"
    },
    {
      "mesh": 0,
      "name": "Stereo textured mesh_Material0_0"
    },
    {
      "mesh": 1,
      "name": "Stereo textured mesh_Material0_0"
    },
    {
      "mesh": 2,
      "name": "Stereo textured mesh_Material0_0"
    },
    {
      "mesh": 3,
      "name": "Stereo textured mesh_Material0_0"
    },
    {
      "mesh": 4,
      "name": "Stereo textured mesh_Material0_0"
    }
  ],
  "samplers": [
    {
      "magFilter": 9729,
      "minFilter": 9987,
      "wrapS": 10497,
      "wrapT": 10497
    }
  ],
  "scene": 0,
  "scenes": [
    {
      "name": "Sketchfab_Scene",
      "nodes": [
        0
      ]
    }
  ],
  "textures": [
    {
      "sampler": 0,
      "source": 0
    }
  ]
}
