{
  "accessors": [
    {
      "bufferView": 2,
      "componentType": 5126,
      "count": 5160,
      "max": [
        1.0,
        5.138088703155518,
        3.236298084259033
      ],
      "min": [
        -6.485250473022461,
        -5.138089179992676,
        -3.2362983226776123
      ],
      "type": "VEC3"
    },
    {
      "bufferView": 2,
      "byteOffset": 61920,
      "componentType": 5126,
      "count": 5160,
      "max": [
        0.9922348856925964,
        0.9927014708518982,
        0.9917495846748352
      ],
      "min": [
        -0.9922353029251099,
        -0.9927014708518982,
        -0.9933207035064697
      ],
      "type": "VEC3"
    },
    {
      "bufferView": 3,
      "componentType": 5126,
      "count": 5160,
      "max": [
        0.9999774694442749,
        1.0,
        0.9999896883964539,
        1.0
      ],
      "min": [
        -0.9999774694442749,
        -1.0,
        -0.9999999403953552,
        1.0
      ],
      "type": "VEC4"
    },
    {
      "bufferView": 1,
      "componentType": 5126,
      "count": 5160,
      "max": [
        0.8301910161972046,
        0.9655484557151794
      ],
      "min": [
        0.0006103515625,
        0.0006103592459112406
      ],
      "type": "VEC2"
    },
    {
      "bufferView": 0,
      "componentType": 5125,
      "count": 16344,
      "type": "SCALAR"
    },
    {
      "bufferView": 2,
      "byteOffset": 123840,
      "componentType": 5126,
      "count": 910,
      "max": [
        0.9275936484336853,
        4.5371809005737305,
        -3.1938958168029785
      ],
      "min": [
        -6.375975131988525,
        -4.5371809005737305,
        -3.4693660736083984
      ],
      "type": "VEC3"
    },
    {
      "bufferView": 2,
      "byteOffset": 134760,
      "componentType": 5126,
      "count": 910,
      "max": [
        1.0,
        1.0,
        1.0
      ],
      "min": [
        -1.0,
        -1.0,
        -1.0
      ],
      "type": "VEC3"
    },
    {
      "bufferView": 3,
      "byteOffset": 82560,
      "componentType": 5126,
      "count": 910,
      "max": [
        1.0,
        1.0,
        1.0,
        1.0
      ],
      "min": [
        -1.0,
        -0.9569725394248962,
        -1.0,
        1.0
      ],
      "type": "VEC4"
    },
    {
      "bufferView": 1,
      "byteOffset": 41280,
      "componentType": 5126,
      "count": 910,
      "max": [
        0.10485821217298508,
        0.9989194273948669
      ],
      "min": [
        0.0006103515625,
        0.0006103592459112406
      ],
      "type": "VEC2"
    },
    {
      "bufferView": 0,
      "byteOffset": 65376,
      "componentType": 5125,
      "count": 2832,
      "type": "SCALAR"
    },
    {
      "bufferView": 2,
      "byteOffset": 145680,
      "componentType": 5126,
      "count": 21070,
      "max": [
        1.0,
        5.1879048347473145,
        5.054080009460449
      ],
      "min": [
        -6.047034740447998,
        -5.187905788421631,
        -0.2144451141357422
      ],
      "type": "VEC3"
    },
    {
      "bufferView": 2,
      "byteOffset": 398520,
      "componentType": 5126,
      "count": 21070,
      "max": [
        1.0,
        1.0,
        0.3924156129360199
      ],
      "min": [
        -1.0,
        -1.0,
        -1.0
      ],
      "type": "VEC3"
    },
    {
      "bufferView": 3,
      "byteOffset": 97120,
      "componentType": 5126,
      "count": 21070,
      "max": [
        1.0,
        1.0,
        1.0,
        1.0
      ],
      "min": [
        -1.0,
        -1.0,
        -1.0,
        1.0
      ],
      "type": "VEC4"
    },
    {
      "bufferView": 1,
      "byteOffset": 48560,
      "componentType": 5126,
      "count": 21070,
      "max": [
        0.926649272441864,
        0.9993419647216797
      ],
      "min": [
        0.0006103515625,
        0.0006103592459112406
      ],
      "type": "VEC2"
    },
    {
      "bufferView": 0,
      "byteOffset": 76704,
      "componentType": 5125,
      "count": 116472,
      "type": "SCALAR"
    },
    {
      "bufferView": 2,
      "byteOffset": 651360,
      "componentType": 5126,
      "count": 4678,
      "max": [
        1.1180000305175781,
        2.6412177085876465,
        5.003169059753418
      ],
      "min": [
        -5.996982097625732,
        -2.6412177085876465,
        -3.5679471492767334
      ],
      "type": "VEC3"
    },
    {
      "bufferView": 2,
      "byteOffset": 707496,
      "componentType": 5126,
      "count": 4678,
      "max": [
        0.9999768137931824,
        0.996553361415863,
        0.9999980926513672
      ],
      "min": [
        -0.9999768137931824,
        -1.0,
        -0.9999980926513672
      ],
      "type": "VEC3"
    },
    {
      "bufferView": 3,
      "byteOffset": 434240,
      "componentType": 5126,
      "count": 4678,
      "max": [
        0.9999990463256836,
        1.0,
        0.9999767541885376,
        1.0
      ],
      "min": [
        -0.9993928670883179,
        -0.9999147057533264,
        -0.9977238774299622,
        1.0
      ],
      "type": "VEC4"
    },
    {
      "bufferView": 1,
      "byteOffset": 217120,
      "componentType": 5126,
      "count": 4678,
      "max": [
        0.9866762161254883,
        0.9993896484375
      ],
      "min": [
        0.0006063255132175982,
        0.0006084458436816931
      ],
      "type": "VEC2"
    },
    {
      "bufferView": 0,
      "byteOffset": 542592,
      "componentType": 5125,
      "count": 15102,
      "type": "SCALAR"
    },
    {
      "bufferView": 2,
      "byteOffset": 763632,
      "componentType": 5126,
      "count": 65532,
      "max": [
        1.0000001192092896,
        5.491530418395996,
        5.23871374130249
      ],
      "min": [
        -6.202034950256348,
        -5.514158725738525,
        -0.17427606880664825
      ],
      "type": "VEC3"
    },
    {
      "bufferView": 2,
      "byteOffset": 1550016,
      "componentType": 5126,
      "count": 65532,
      "max": [
        0.9999967813491821,
        0.999996542930603,
        1.0
      ],
      "min": [
        -0.9999760985374451,
        -0.9999991655349731,
        -0.9999298453330994
      ],
      "type": "VEC3"
    },
    {
      "bufferView": 3,
      "byteOffset": 509088,
      "componentType": 5126,
      "count": 65532,
      "max": [
        1.0,
        0.9929113984107971,
        0.9999808073043823,
        1.0
      ],
      "min": [
        -0.9999209046363831,
        -0.9894194006919861,
        -0.9999999403953552,
        -1.0
      ],
      "type": "VEC4"
    },
    {
      "bufferView": 1,
      "byteOffset": 254544,
      "componentType": 5126,
      "count": 65532,
      "max": [
        0.69731205701828,
        0.9999158382415771
      ],
      "min": [
        8.3493250713218e-05,
        8.3493250713218e-05
      ],
      "type": "VEC2"
    },
    {
      "bufferView": 0,
      "byteOffset": 603000,
      "componentType": 5125,
      "count": 381126,
      "type": "SCALAR"
    },
    {
      "bufferView": 2,
      "byteOffset": 2336400,
      "componentType": 5126,
      "count": 13511,
      "max": [
        0.9787896871566772,
        5.514161109924316,
        5.235083103179932
      ],
      "min": [
        -6.2020344734191895,
        -5.514158725738525,
        -0.16431771218776703
      ],
      "type": "VEC3"
    },
    {
      "bufferView": 2,
      "byteOffset": 2498532,
      "componentType": 5126,
      "count": 13511,
      "max": [
        0.999740481376648,
        0.9999991655349731,
        1.0
      ],
      "min": [
        -0.9999760985374451,
        -0.9999964237213135,
        -0.9998964667320251
      ],
      "type": "VEC3"
    },
    {
      "bufferView": 3,
      "byteOffset": 1557600,
      "componentType": 5126,
      "count": 13511,
      "max": [
        1.0,
        0.958648145198822,
        0.9999808073043823,
        1.0
      ],
      "min": [
        -0.9998037219047546,
        -0.9447262287139893,
        -0.9999812245368958,
        1.0
      ],
      "type": "VEC4"
    },
    {
      "bufferView": 1,
      "byteOffset": 778800,
      "componentType": 5126,
      "count": 13511,
      "max": [
        0.6953567862510681,
        0.999916672706604
      ],
      "min": [
        8.39981366880238e-05,
        0.021904096007347107
      ],
      "type": "VEC2"
    },
    {
      "bufferView": 0,
      "byteOffset": 2127504,
      "componentType": 5125,
      "count": 68250,
      "type": "SCALAR"
    }
  ],
  "asset": {
    "extras": {
      "author": "Watndit (https://sketchfab.com/Watndit)",
      "license": "CC-BY-4.0 (http://creativecommons.org/licenses/by/4.0/)",
      "source": "https://sketchfab.com/3d-models/wooden-sofa-62dbd2a0afb44b21ab43dcc936eb1d65",
      "title": "Wooden Sofa"
    },
    "generator": "Sketchfab-13.91.0",
    "version": "2.0"
  },
  "bufferViews": [
    {
      "buffer": 0,
      "byteLength": 2400504,
      "name": "floatBufferViews",
      "target": 34963
    },
    {
      "buffer": 0,
      "byteLength": 886888,
      "byteOffset": 2400504,
      "byteStride": 8,
      "name": "floatBufferViews",
      "target": 34962
    },
    {
      "buffer": 0,
      "byteLength": 2660664,
      "byteOffset": 3287392,
      "byteStride": 12,
      "name": "floatBufferViews",
      "target": 34962
    },
    {
      "buffer": 0,
      "byteLength": 1773776,
      "byteOffset": 5948056,
      "byteStride": 16,
      "name": "floatBufferViews",
      "target": 34962
    }
  ],
  "buffers": [
    {
      "byteLength": 7721832,
      "uri": "scene.bin"
    }
  ],
  "images": [
    {
      "uri": "textures/rest_baseColor.png"
    },
    {
      "uri": "textures/rest_metallicRoughness.png"
    },
    {
      "uri": "textures/rest_normal.png"
    },
    {
      "uri": "textures/leder_oben_baseColor.png"
    },
    {
      "uri": "textures/leder_oben_metallicRoughness.png"
    },
    {
      "uri": "textures/leder_oben_normal.png"
    }
  ],
  "materials": [
    {
      "doubleSided": true,
      "name": "rest",
      "normalTexture": {
        "index": 2
      },
      "pbrMetallicRoughness": {
        "baseColorTexture": {
          "index": 0
        },
        "metallicFactor": 0.0,
        "metallicRoughnessTexture": {
          "index": 1
        }
      }
    },
    {
      "doubleSided": true,
      "name": "leder_oben",
      "normalTexture": {
        "index": 5
      },
      "pbrMetallicRoughness": {
        "baseColorTexture": {
          "index": 3
        },
        "metallicFactor": 0.0,
        "metallicRoughnessTexture": {
          "index": 4
        }
      }
    }
  ],
  "meshes": [
    {
      "name": "Cube_rest_0",
      "primitives": [
        {
          "attributes": {
            "NORMAL": 1,
            "POSITION": 0,
            "TANGENT": 2,
            "TEXCOORD_0": 3
          },
          "indices": 4,
          "material": 0,
          "mode": 4
        }
      ]
    },
    {
      "name": "Cube.001_rest_0",
      "primitives": [
        {
          "attributes": {
            "NORMAL": 6,
            "POSITION": 5,
            "TANGENT": 7,
            "TEXCOORD_0": 8
          },
          "indices": 9,
          "material": 0,
          "mode": 4
        }
      ]
    },
    {
      "name": "Cube.002_rest_0",
      "primitives": [
        {
          "attributes": {
            "NORMAL": 11,
            "POSITION": 10,
            "TANGENT": 12,
            "TEXCOORD_0": 13
          },
          "indices": 14,
          "material": 0,
          "mode": 4
        }
      ]
    },
    {
      "name": "Cube.003_rest_0",
      "primitives": [
        {
          "attributes": {
            "NORMAL": 16,
            "POSITION": 15,
            "TANGENT": 17,
            "TEXCOORD_0": 18
          },
          "indices": 19,
          "material": 0,
          "mode": 4
        }
      ]
    },
    {
      "name": "Cube.004_leder oben_0",
      "primitives": [
        {
          "attributes": {
            "NORMAL": 21,
            "POSITION": 20,
            "TANGENT": 22,
            "TEXCOORD_0": 23
          },
          "indices": 24,
          "material": 1,
          "mode": 4
        }
      ]
    },
    {
      "name": "Cube.004_leder oben_0",
      "primitives": [
        {
          "attributes": {
            "NORMAL": 26,
            "POSITION": 25,
            "TANGENT": 27,
            "TEXCOORD_0": 28
          },
          "indices": 29,
          "material": 1,
          "mode": 4
        }
      ]
    }
  ],
  "nodes": [
    {
      "children": [
        1
      ],
      "matrix": [
        0.7483449578285217,
        0.0,
        0.0,
        0.0,
        0.0,
        1.6616596050867332e-16,
        -0.7483449578285217,
        0.0,
        0.0,
        0.7483449578285217,
        1.6616596050867332e-16,
        0.0,
        0.0,
        0.0,
        0.0,
        1.0
      ],
      "name": "Sketchfab_model"
    },
    {
      "children": [
        2
      ],
      "matrix": [
        0.009999999776482582,
        0.0,
        0.0,
        0.0,
        0.0,
        0.0,
        0.009999999776482582,
        0.0,
        0.0,
        -0.009999999776482582,
        0.0,
        0.0,
        0.0,
        0.0,
        0.0,
        1.0
      ],
      "name": "sessel.fbx"
    },
    {
      "children": [
        3,
        5,
        7,
        9,
        11
      ],
      "name": "RootNode"
    },
    {
      "children": [
        4
      ],
      "matrix": [
        15.504974365234375,
        0.0,
        0.0,
        0.0,
        0.0,
        -2.5260809575369144e-06,
        -15.50497436523417,
        0.0,
        0.0,
        15.50497436523417,
        -2.5260809575369144e-06,
        0.0,
        0.0,
        0.0,
        0.0,
        1.0
      ],
      "name": "Cube"
    },
    {
      "mesh": 0,
      "name": "Cube_rest_0"
    },
    {
      "children": [
        6
      ],
      "matrix": [
        15.504974365234375,
        0.0,
        0.0,
        0.0,
        0.0,
        -2.5260809575369144e-06,
        -15.50497436523417,
        0.0,
        0.0,
        15.50497436523417,
        -2.5260809575369144e-06,
        0.0,
        0.0,
        0.0,
        0.0,
        1.0
      ],
      "name": "Cube.001"
    },
    {
      "mesh": 1,
      "name": "Cube.001_rest_0"
    },
    {
      "children": [
        8
      ],
      "matrix": [
        15.504974365234375,
        0.0,
        0.0,
        0.0,
        0.0,
        -2.5260809575369144e-06,
        -15.50497436523417,
        0.0,
        0.0,
        15.50497436523417,
        -2.5260809575369144e-06,
        0.0,
        0.0,
        0.0,
        0.0,
        1.0
      ],
      "name": "Cube.002"
    },
    {
      "mesh": 2,
      "name": "Cube.002_rest_0"
    },
    {
      "children": [
        10
      ],
      "matrix": [
        15.504974365234375,
        0.0,
        0.0,
        0.0,
        0.0,
        -2.5260809575369144e-06,
        -15.50497436523417,
        0.0,
        0.0,
        15.50497436523417,
        -2.5260809575369144e-06,
        0.0,
        0.0,
        0.0,
        0.0,
        1.0
      ],
      "name": "Cube.003"
    },
    {
      "mesh": 3,
      "name": "Cube.003_rest_0"
    },
    {
      "children": [
        12,
        13
      ],
      "matrix": [
        15.504974365234375,
        0.0,
        0.0,
        0.0,
        0.0,
        -2.5260809575369144e-06,
        -15.50497436523417,
        0.0,
        0.0,
        15.50497436523417,
        -2.5260809575369144e-06,
        0.0,
        0.0,
        0.0,
        0.0,
        1.0
      ],
      "name": "Cube.004"
    },
    {
      "mesh": 4,
      "name": "Cube.004_leder oben_0"
    },
    {
      "mesh": 5,
      "name": "Cube.004_leder oben_0"
    }
  ],
  "samplers": [
    {
      "magFilter": 9729,
      "minFilter": 9987,
      "wrapS": 10497,
      "wrapT": 10497
    }
  ],
  "scene": 0,
  "scenes": [
    {
      "name": "Sketchfab_Scene",
      "nodes": [
        0
      ]
    }
  ],
  "textures": [
    {
      "sampler": 0,
      "source": 0
    },
    {
      "sampler": 0,
      "source": 1
    },
    {
      "sampler": 0,
      "source": 2
    },
    {
      "sampler": 0,
      "source": 3
    },
    {
      "sampler": 0,
      "source": 4
    },
    {
      "sampler": 0,
      "source": 5
    }
  ]
}
